# xmcd
#
# Track frame offsets: 
#        150
#        16654
#        29516
#        53532
#        68579
#        83247
#        98809
#        111329
#
# Disc length: 1614 seconds
#
# Revision: 2
# Processed by: cddbd v1.5.2PL0 Copyright (c) Steve Scherf et al.
# Submitted via: ExactAudioCopy v1.1
#
DISCID=58064c08
DTITLE=Marvin Gaye - Marvin Gaye Recorded Live on Stage
DYEAR=1963
DGENRE=R&B
TTITLE0=Stubborn Kind Of Fellow (live) (mono)
TTITLE1=One Of These Days (live) (mono)
TTITLE2=Mo Jo Hanna (live) (mono)
TTITLE3=The Days Of Wine And Roses (live) (mono)
TTITLE4=Pride And Joy (live) (mono)
TTITLE5=Hitch Hike (live) (mono)
TTITLE6=Get My Hands On Some Lovin' (live) (mono)
TTITLE7=You Are My Sunshine (live) (mono)
EXTD=
EXTT0=
EXTT1=
EXTT2=
EXTT3=
EXTT4=
EXTT5=
EXTT6=
EXTT7=
PLAYORDER=
